<svg height="120" viewBox="0 0 180 120" width="180" xmlns="http://www.w3.org/2000/svg"><title/><g fill="none" fill-rule="evenodd"><path fill="#CA4638" d="M0 0h180v120H0z"/><path fill="#FFF" d="M0 9h180v9H0zM0 27h180v9H0zM0 45h180v9H0zM0 64h180v9H0zM0 83h180v9H0zM0 102h180v9H0z"/><path fill="#346DA6" d="M0 0h90v64H0z"/><g fill="#FFF"><path d="M5 9l-1.9 1 .4-2.2L2 6.3 4 6l1-2 1 2 2 .3-1.5 1.5.4 2.2zM5 22l-1.9 1 .4-2.2L2 19.3l2-.3 1-2 1 2 2 .3-1.5 1.5.4 2.2zM5 34l-1.9 1 .4-2.2L2 31.3l2-.3 1-2 1 2 2 .3-1.5 1.5.4 2.2zM5 47l-1.9 1 .4-2.2L2 44.3l2-.3 1-2 1 2 2 .3-1.5 1.5.4 2.2zM5 60l-1.9 1 .4-2.2L2 57.3l2-.3 1-2 1 2 2 .3-1.5 1.5.4 2.2zM13 28l-1.9 1 .4-2.2-1.5-1.5 2-.3 1-2 1 2 2 .3-1.5 1.5.4 2.2zM13 41l-1.9 1 .4-2.2-1.5-1.5 2-.3 1-2 1 2 2 .3-1.5 1.5.4 2.2zM13 15l-1.9 1 .4-2.2-1.5-1.5 2-.3 1-2 1 2 2 .3-1.5 1.5.4 2.2zM13 53l-1.9 1 .4-2.2-1.5-1.5 2-.3 1-2 1 2 2 .3-1.5 1.5.4 2.2zM21 9l-1.9 1 .4-2.2L18 6.3l2-.3 1-2 1 2 2 .3-1.5 1.5.4 2.2zM21 22l-1.9 1 .4-2.2-1.5-1.5 2-.3 1-2 1 2 2 .3-1.5 1.5.4 2.2zM21 34l-1.9 1 .4-2.2-1.5-1.5 2-.3 1-2 1 2 2 .3-1.5 1.5.4 2.2zM21 47l-1.9 1 .4-2.2-1.5-1.5 2-.3 1-2 1 2 2 .3-1.5 1.5.4 2.2zM21 60l-1.9 1 .4-2.2-1.5-1.5 2-.3 1-2 1 2 2 .3-1.5 1.5.4 2.2zM29 28l-1.9 1 .4-2.2-1.5-1.5 2-.3 1-2 1 2 2 .3-1.5 1.5.4 2.2zM29 41l-1.9 1 .4-2.2-1.5-1.5 2-.3 1-2 1 2 2 .3-1.5 1.5.4 2.2zM29 15l-1.9 1 .4-2.2-1.5-1.5 2-.3 1-2 1 2 2 .3-1.5 1.5.4 2.2zM29 53l-1.9 1 .4-2.2-1.5-1.5 2-.3 1-2 1 2 2 .3-1.5 1.5.4 2.2zM37 9l-1.9 1 .4-2.2L34 6.3l2-.3 1-2 1 2 2 .3-1.5 1.5.4 2.2zM37 22l-1.9 1 .4-2.2-1.5-1.5 2-.3 1-2 1 2 2 .3-1.5 1.5.4 2.2zM37 34l-1.9 1 .4-2.2-1.5-1.5 2-.3 1-2 1 2 2 .3-1.5 1.5.4 2.2zM37 47l-1.9 1 .4-2.2-1.5-1.5 2-.3 1-2 1 2 2 .3-1.5 1.5.4 2.2zM37 60l-1.9 1 .4-2.2-1.5-1.5 2-.3 1-2 1 2 2 .3-1.5 1.5.4 2.2zM45 28l-1.9 1 .4-2.2-1.5-1.5 2-.3 1-2 1 2 2 .3-1.5 1.5.4 2.2zM45 41l-1.9 1 .4-2.2-1.5-1.5 2-.3 1-2 1 2 2 .3-1.5 1.5.4 2.2zM45 15l-1.9 1 .4-2.2-1.5-1.5 2-.3 1-2 1 2 2 .3-1.5 1.5.4 2.2zM45 53l-1.9 1 .4-2.2-1.5-1.5 2-.3 1-2 1 2 2 .3-1.5 1.5.4 2.2zM53 9l-1.9 1 .4-2.2L50 6.3l2-.3 1-2 1 2 2 .3-1.5 1.5.4 2.2zM53 22l-1.9 1 .4-2.2-1.5-1.5 2-.3 1-2 1 2 2 .3-1.5 1.5.4 2.2zM53 34l-1.9 1 .4-2.2-1.5-1.5 2-.3 1-2 1 2 2 .3-1.5 1.5.4 2.2zM53 47l-1.9 1 .4-2.2-1.5-1.5 2-.3 1-2 1 2 2 .3-1.5 1.5.4 2.2zM53 60l-1.9 1 .4-2.2-1.5-1.5 2-.3 1-2 1 2 2 .3-1.5 1.5.4 2.2zM61 28l-1.9 1 .4-2.2-1.5-1.5 2-.3 1-2 1 2 2 .3-1.5 1.5.4 2.2zM61 41l-1.9 1 .4-2.2-1.5-1.5 2-.3 1-2 1 2 2 .3-1.5 1.5.4 2.2zM61 15l-1.9 1 .4-2.2-1.5-1.5 2-.3 1-2 1 2 2 .3-1.5 1.5.4 2.2zM61 53l-1.9 1 .4-2.2-1.5-1.5 2-.3 1-2 1 2 2 .3-1.5 1.5.4 2.2zM69 9l-1.9 1 .4-2.2L66 6.3l2-.3 1-2 1 2 2 .3-1.5 1.5.4 2.2zM69 22l-1.9 1 .4-2.2-1.5-1.5 2-.3 1-2 1 2 2 .3-1.5 1.5.4 2.2zM69 34l-1.9 1 .4-2.2-1.5-1.5 2-.3 1-2 1 2 2 .3-1.5 1.5.4 2.2zM69 47l-1.9 1 .4-2.2-1.5-1.5 2-.3 1-2 1 2 2 .3-1.5 1.5.4 2.2zM69 60l-1.9 1 .4-2.2-1.5-1.5 2-.3 1-2 1 2 2 .3-1.5 1.5.4 2.2zM77 28l-1.9 1 .4-2.2-1.5-1.5 2-.3 1-2 1 2 2 .3-1.5 1.5.4 2.2zM77 41l-1.9 1 .4-2.2-1.5-1.5 2-.3 1-2 1 2 2 .3-1.5 1.5.4 2.2zM77 15l-1.9 1 .4-2.2-1.5-1.5 2-.3 1-2 1 2 2 .3-1.5 1.5.4 2.2zM77 53l-1.9 1 .4-2.2-1.5-1.5 2-.3 1-2 1 2 2 .3-1.5 1.5.4 2.2zM85 9l-1.9 1 .4-2.2L82 6.3l2-.3 1-2 1 2 2 .3-1.5 1.5.4 2.2zM85 22l-1.9 1 .4-2.2-1.5-1.5 2-.3 1-2 1 2 2 .3-1.5 1.5.4 2.2zM85 34l-1.9 1 .4-2.2-1.5-1.5 2-.3 1-2 1 2 2 .3-1.5 1.5.4 2.2zM85 47l-1.9 1 .4-2.2-1.5-1.5 2-.3 1-2 1 2 2 .3-1.5 1.5.4 2.2zM85 60l-1.9 1 .4-2.2-1.5-1.5 2-.3 1-2 1 2 2 .3-1.5 1.5.4 2.2z"/></g></g></svg>